first trial
nRows=16
nColumns=38

# SIMM Motion File Header:
name Sujet_05_velo_60.mvnx
datacolumns 38
datarows 16
otherdata 1
range 0.0000 0.2510
endheader
time pelvis_tilt  pelvis_list  pelvis_rotation  pelvis_tx  pelvis_ty  pelvis_tz  hip_flexion_r  hip_adduction_r  hip_rotation_r  knee_angle_r  ankle_angle_r  subtalar_angle_r  mtp_angle_r  hip_flexion_l  hip_adduction_l  hip_rotation_l  knee_angle_l  ankle_angle_l  subtalar_angle_l  mtp_angle_l  lumbar_extension  lumbar_bending  lumbar_rotation  arm_flex_r  arm_add_r  arm_rot_r  elbow_flex_r  pro_sup_r  wrist_flex_r  wrist_dev_r  arm_flex_l  arm_add_l  arm_rot_l  elbow_flex_l  pro_sup_l  wrist_flex_l  wrist_dev_l
0.0000	-4.7274	2.4916	-84.9391	0.0000	1.2500	-0.0000	49.4057	-4.4224	-12.3320	42.2115	-14.3526	4.6524	-0.0000	58.9450	-0.8113	-8.3769	93.2506	-9.8659	4.1010	-0.0000	-23.2951	0.3086	-1.9307	91.1950	-11.0324	23.9895	3.8575	62.5048	-57.0060	-35.7629	99.3367	-10.6193	24.3209	-0.6975	62.5952	-41.5243	-21.6051	
0.0170	-4.6432	2.7555	-84.9854	0.0000	1.2500	-0.0000	46.6137	-3.8464	-12.7219	38.9324	-15.5925	4.9960	-0.0000	60.8004	0.1874	-8.9016	95.2201	-9.7417	5.6002	0.0000	-23.2751	0.0813	-1.9380	90.8121	-11.0781	23.7777	3.9429	62.3112	-57.0235	-35.8412	99.1034	-10.3992	24.3051	-0.7359	62.8524	-41.4856	-21.6137	
0.0330	-4.5594	3.0194	-85.0321	0.0000	1.2500	-0.0000	43.8256	-3.2634	-13.0915	35.6413	-16.8481	5.3899	0.0000	62.6688	1.1594	-9.4629	97.2752	-9.6665	7.0945	-0.0000	-23.2554	-0.1461	-1.9447	90.4285	-11.1207	23.5662	4.0285	62.1178	-57.0410	-35.9196	98.8692	-10.1802	24.2894	-0.7746	63.1093	-41.4468	-21.6222	
0.0500	-4.5114	3.2820	-85.0450	0.0000	1.2500	-0.0000	41.2560	-2.9053	-13.3163	32.8183	-18.0033	5.6289	-0.0000	64.6409	1.9647	-9.8670	99.0209	-9.5818	8.0957	-0.0000	-23.2387	-0.3485	-1.9736	90.1030	-11.1738	23.3772	4.1002	61.9607	-57.0497	-35.9786	98.6900	-9.9890	24.2825	-0.7977	63.3274	-41.3951	-21.6119	
0.0670	-4.5112	3.5534	-85.0017	0.0000	1.2500	-0.0000	38.9157	-2.9363	-13.3346	30.5753	-19.0592	5.5842	-0.0000	66.8164	2.5387	-10.0028	100.2762	-9.4649	8.2733	0.0000	-23.2274	-0.5209	-2.0395	89.8534	-11.2523	23.2092	4.1574	61.8665	-57.0462	-36.0084	98.5995	-9.8332	24.2936	-0.7960	63.4932	-41.3170	-21.5641	
0.0840	-4.5464	3.8237	-84.9242	0.0000	1.2500	-0.0000	36.7897	-3.2064	-13.2477	28.8154	-19.9967	5.3519	-0.0000	69.0842	2.9676	-9.9693	101.1328	-9.2875	7.9545	-0.0000	-23.2193	-0.6684	-2.1282	89.6619	-11.3436	23.0634	4.2007	61.8087	-57.0338	-36.0188	98.5644	-9.7043	24.3133	-0.7786	63.6201	-41.2260	-21.4976	
0.1000	-4.6172	4.0615	-84.8453	0.0000	1.2500	-0.0000	35.0525	-3.4754	-13.1725	27.7069	-20.6623	5.0595	-0.0000	71.2139	3.3432	-9.8824	101.5697	-8.9653	7.6257	-0.0000	-23.2100	-0.7810	-2.2182	89.5337	-11.4223	22.9666	4.2181	61.7445	-57.0140	-36.0195	98.5405	-9.6052	24.3222	-0.7570	63.7100	-41.1500	-21.4503	
0.1170	-4.7353	4.2729	-84.7804	0.0000	1.2500	-0.0000	33.7636	-3.6751	-13.1620	27.2925	-21.0178	4.7245	0.0000	73.1859	3.6964	-9.7387	101.5878	-8.4239	7.4527	0.0000	-23.1973	-0.8617	-2.3074	89.4896	-11.4765	22.9451	4.1986	61.6428	-56.9846	-36.0149	98.5054	-9.5422	24.3063	-0.7305	63.7642	-41.0946	-21.4375	
0.1340	-4.8894	4.4520	-84.7140	0.0000	1.2500	-0.0000	32.8639	-3.8681	-13.1498	27.5253	-21.1016	4.3175	-0.0000	75.0180	4.0055	-9.5307	101.1905	-7.7390	7.2797	-0.0000	-23.1831	-0.9073	-2.3980	89.5094	-11.5187	22.9730	4.1530	61.5348	-56.9477	-36.0005	98.4820	-9.5088	24.2798	-0.6997	63.7814	-41.0541	-21.4439	
0.1500	-5.0441	4.5499	-84.6325	0.0000	1.2500	-0.0000	32.3496	-4.0061	-13.0553	28.4378	-20.8793	3.8998	0.0000	76.5369	4.2760	-9.3675	100.3663	-7.0562	7.0966	-0.0000	-23.1691	-0.8992	-2.4748	89.5367	-11.5602	22.9992	4.1028	61.4709	-56.9112	-35.9726	98.4939	-9.4892	24.2653	-0.6770	63.7592	-41.0395	-21.4609	
0.1670	-5.2025	4.5460	-84.5176	0.0000	1.2500	-0.0000	32.2599	-4.0639	-12.8367	30.1074	-20.2886	3.4375	-0.0000	77.7144	4.5188	-9.2680	99.0687	-6.4143	6.8737	0.0000	-23.1527	-0.8250	-2.5376	89.5370	-11.6039	22.9946	4.0558	61.4782	-56.8774	-35.9303	98.5574	-9.4784	24.2684	-0.6702	63.6972	-41.0646	-21.4901	
0.1840	-5.3621	4.4611	-84.3884	0.0000	1.2500	-0.0000	32.5559	-4.0657	-12.5294	32.4596	-19.4023	2.9433	0.0000	78.5776	4.7247	-9.2049	97.3465	-5.7739	6.6434	-0.0000	-23.1365	-0.6972	-2.5862	89.5450	-11.6468	22.9884	4.0042	61.5297	-56.8440	-35.8744	98.6562	-9.4816	24.2835	-0.6714	63.5958	-41.1155	-21.5300	
0.2000	-5.4805	4.3074	-84.2902	0.0000	1.2500	-0.0000	33.1166	-4.0376	-12.1695	35.3018	-18.3853	2.5494	-0.0000	79.0364	4.8642	-9.2155	95.3281	-5.1648	6.4850	-0.0000	-23.1300	-0.5341	-2.6057	89.6082	-11.6910	23.0173	3.9462	61.5959	-56.8122	-35.8037	98.7642	-9.4985	24.3167	-0.6702	63.4538	-41.1616	-21.5673	
0.2170	-5.5400	4.0792	-84.2279	0.0000	1.2500	-0.0000	33.9393	-3.9809	-11.7313	38.6691	-17.2533	2.3299	0.0000	79.0499	4.9268	-9.2977	93.0229	-4.5704	6.4016	-0.0000	-23.1394	-0.3342	-2.5898	89.7562	-11.7452	23.1092	3.8758	61.6467	-56.7790	-35.7162	98.8855	-9.5308	24.3885	-0.6669	63.2555	-41.1906	-21.5992	
0.2340	-5.5581	3.7820	-84.1963	0.0000	1.2500	-0.0000	35.0276	-3.8887	-11.2463	42.5209	-15.9878	2.2020	-0.0000	78.6594	4.9194	-9.4499	90.4182	-4.0093	6.4020	0.0000	-23.1589	-0.0992	-2.5449	89.9595	-11.7997	23.2367	3.7990	61.7122	-56.7475	-35.6138	99.0159	-9.5771	24.4783	-0.6607	63.0167	-41.2149	-21.6286	
0.2510	-5.5437	3.4444	-84.2260	0.0000	1.2500	-0.0000	36.2700	-3.7766	-10.8363	46.5523	-14.6927	2.0743	0.0000	77.8987	4.8382	-9.7122	87.6046	-3.5648	6.5652	-0.0000	-23.1811	0.1476	-2.4756	90.1770	-11.8287	23.3528	3.7325	61.8533	-56.7268	-35.5010	99.1174	-9.6318	24.5299	-0.6399	62.7832	-41.2410	-21.6507	
